<svg xmlns="http://www.w3.org/2000/svg" viewBox="0 0 16 16" width="16" height="16"><path fill="#4285F4" d="M15.68 8.18c0-.46-.04-.83-.11-1.18H8v2.75h4.47c-.14.71-.62 1.71-1.61 2.42v1.89h2.44c1.51-1.39 2.38-3.44 2.38-5.88z"/><path fill="#34A853" d="M8 16c2.16 0 3.97-.72 5.29-1.94l-2.44-1.89c-.69.49-1.61.85-2.86.85-2.15 0-3.96-1.42-4.63-3.38H.86v1.95C2.17 14.2 4.87 16 8 16z"/><path fill="#FBBC05" d="M3.37 9.64c-.18-.52-.3-1.06-.3-1.64s.12-1.12.29-1.64V4.41H.86C.31 5.49 0 6.71 0 8s.31 2.51.86 3.59l2.51-1.95z"/><path fill="#EA4335" d="M8 2.98c1.54 0 2.57.66 3.17 1.22l2.19-2.12C11.97.79 10.16 0 8 0 4.87 0 2.17 1.8.86 4.41l2.51 1.95C4.04 4.4 5.85 2.98 8 2.98z"/></svg>