<svg width="80" height="26" viewBox="0 0 80 26" fill="none" xmlns="http://www.w3.org/2000/svg">
<path d="M10.2482 20.0559C4.6842 20.0559 0 15.5609 0 10.0286C0 4.49622 4.68073 0.00118682 10.2482 0.00118682C11.5288 -0.0188701 12.8005 0.21547 13.9888 0.690466C15.1772 1.16546 16.2582 1.87156 17.1685 2.76736L15.2211 4.70368C13.8882 3.42393 12.1009 2.71933 10.2482 2.74316C8.32938 2.78469 6.50321 3.57178 5.16092 4.9358C3.81862 6.29982 3.06696 8.1323 3.06696 10.0407C3.06696 11.949 3.81862 13.7815 5.16092 15.1455C6.50321 16.5096 8.32938 17.2966 10.2482 17.3382C12.8842 17.3382 14.3864 16.2836 15.3462 15.3292C16.1356 14.5443 16.6503 13.4206 16.852 11.8715H10.2447V9.12956H19.5297C19.637 9.69949 19.6871 10.2786 19.6792 10.8584C19.6792 12.9158 19.1124 15.4606 17.2902 17.2759C15.468 19.0912 13.2493 20.094 10.2447 20.094" fill="#5E5E5E"/>
<path d="M33.93 13.6313C33.9355 14.9091 33.5593 16.1598 32.849 17.2248C32.1387 18.2898 31.1264 19.1211 29.9404 19.6132C28.7543 20.1054 27.448 20.2363 26.1871 19.9894C24.9261 19.7425 23.7673 19.1288 22.8576 18.2262C21.9478 17.3235 21.3281 16.1726 21.0771 14.9194C20.826 13.6662 20.9548 12.367 21.4473 11.1867C21.9397 10.0063 22.7736 8.99797 23.8431 8.28944C24.9127 7.58091 26.1697 7.20413 27.4549 7.20685C28.3084 7.1934 29.156 7.35017 29.9476 7.66792C30.7392 7.98566 31.4587 8.45793 32.0636 9.05682C32.6685 9.65571 33.1466 10.3691 33.4695 11.1548C33.7925 11.9405 33.9538 12.7826 33.9439 13.6313H33.93ZM31.1063 13.6313C31.1063 11.3181 29.4127 9.73444 27.4549 9.73444C25.4971 9.73444 23.807 11.3181 23.807 13.6313C23.807 15.9445 25.4971 17.5281 27.4549 17.5281C29.4127 17.5281 31.1063 15.9203 31.1063 13.6313Z" fill="#5E5E5E"/>
<path d="M48.087 13.6313C48.0925 14.9086 47.7166 16.1587 47.007 17.2234C46.2973 18.2881 45.2858 19.1193 44.1006 19.6119C42.9153 20.1045 41.6097 20.2362 40.3492 19.9904C39.0886 19.7446 37.9298 19.1323 37.0195 18.2311C36.1092 17.3298 35.4884 16.1802 35.2357 14.9279C34.9831 13.6756 35.11 12.3768 35.6003 11.1963C36.0906 10.0157 36.9223 9.00637 37.99 8.29618C39.0577 7.58598 40.3134 7.20686 41.598 7.20685C42.4515 7.1934 43.2991 7.35017 44.0907 7.66792C44.8823 7.98566 45.6018 8.45793 46.2067 9.05682C46.8116 9.65571 47.2896 10.3691 47.6126 11.1548C47.9356 11.9405 48.0969 12.7826 48.087 13.6313ZM45.2494 13.6313C45.2494 11.3181 43.5558 9.73444 41.598 9.73444C39.6402 9.73444 37.9466 11.3181 37.9466 13.6313C37.9466 15.9445 39.6402 17.5281 41.598 17.5281C43.5558 17.5281 45.2494 15.9203 45.2494 13.6313Z" fill="#5E5E5E"/>
<path d="M61.7222 7.59381V19.108C61.7222 23.8554 58.9054 25.8056 55.5774 25.8056C54.3499 25.8109 53.1487 25.4517 52.1278 24.7741C51.1068 24.0965 50.3125 23.1313 49.8465 22.0021L52.319 20.9648C52.7572 22.0021 53.8387 23.2538 55.574 23.2538C57.7057 23.2538 59.0237 21.9364 59.0237 19.4814V18.579H58.9263C58.4994 19.0533 57.9737 19.4296 57.3858 19.6816C56.7978 19.9336 56.1618 20.0552 55.5218 20.0381C52.2877 20.0381 49.3249 17.2408 49.3249 13.6379C49.3249 10.035 52.2877 7.1858 55.5218 7.1858C56.1595 7.17089 56.7931 7.29149 57.3802 7.53954C57.9673 7.78759 58.4944 8.15739 58.9263 8.62421H59.0237V7.58689H61.7222V7.59381ZM59.2253 13.6552C59.2253 11.3904 57.7057 9.73414 55.7722 9.73414C53.8387 9.73414 52.173 11.3904 52.173 13.6552C52.173 15.92 53.8143 17.5209 55.7722 17.5209C57.73 17.5209 59.2253 15.8958 59.2253 13.6552Z" fill="#5E5E5E"/>
<path d="M66.4656 1.16309H63.7879V20.056H66.4656V1.16309Z" fill="#5E5E5E"/>
<path d="M77.691 15.7579L79.8957 17.217C79.3058 18.0988 78.5046 18.8208 77.5643 19.3182C76.624 19.8155 75.5741 20.0726 74.509 20.0662C73.6589 20.0785 72.8151 19.9203 72.0279 19.601C71.2406 19.2817 70.5262 18.8079 69.9273 18.2078C69.3284 17.6078 68.8573 16.8939 68.5422 16.1088C68.227 15.3237 68.0743 14.4834 68.093 13.6383C68.093 9.81407 70.8577 7.21387 74.1926 7.21387C77.5275 7.21387 79.1898 9.86939 79.7253 11.3009L80 12.0408L71.3723 15.5885C71.6378 16.1876 72.078 16.6938 72.636 17.0415C73.194 17.3892 73.844 17.5623 74.5021 17.5386C75.9522 17.5386 76.9537 16.8263 77.6875 15.7579H77.691ZM70.9237 13.4378L76.6999 11.0519C76.3834 10.2497 75.4271 9.68959 74.3004 9.68959C73.8293 9.70975 73.367 9.82338 72.9407 10.0238C72.5144 10.2242 72.1328 10.5073 71.8182 10.8566C71.5035 11.2058 71.2623 11.6141 71.1087 12.0573C70.9551 12.5006 70.8922 12.97 70.9237 13.4378Z" fill="#5E5E5E"/>
</svg>
